# xmcd CD database file
#
# Track frame offsets:
#	150
#	13055
#	24015
#	38612
#	51980
#	66602
#	78617
#	92885
#	106210
#	117817
#	129110
#	143175
#	155600
#	168107
#	178462
#	191375
#	206377
#	221282
#	235347
#	246452
#
# Disc length: 3456 seconds
#
# Revision: 0
# Processed by: cddbd v1.5.2PL0 Copyright (c) Steve Scherf et al.
# Submitted via: CDex 1.51
#
DISCID=120d7e14
DTITLE=Fernandel - Le Flamboyant [CD2)
DYEAR=2000
DGENRE=Chanson Française
TTITLE0=Un Homme
TTITLE1=Les Dégourdis
TTITLE2=Je Vais Au Zoo Avec Zizi
TTITLE3=La Fille Du Teinturier
TTITLE4=Idylle À Bois-Le-Roi
TTITLE5=Je Suis Une Petite Nature
TTITLE6=Politesse
TTITLE7=La Chanson Du Forçat
TTITLE8=J'aime Toutes Les Femmes
TTITLE9=J'ai Mon Coeur Qui Fait Tic-Tac
TTITLE10=L'amour Est Un Mystère
TTITLE11=C'est Comme À Calcutta
TTITLE12=Je Ne Peux Pas M'expliquer
TTITLE13=La Bouillabaisse
TTITLE14=Les Jours Sans
TTITLE15=Le Papa De Pepa
TTITLE16=On Est Jamais Seul
TTITLE17=Lequel Des Deux
TTITLE18=Elle A Tout ÇA
TTITLE19=Cocococo Cocococotte
EXTD=YEAR: 2000
EXTT0=
EXTT1=
EXTT2=
EXTT3=
EXTT4=
EXTT5=
EXTT6=
EXTT7=
EXTT8=
EXTT9=
EXTT10=
EXTT11=
EXTT12=
EXTT13=
EXTT14=
EXTT15=
EXTT16=
EXTT17=
EXTT18=
EXTT19=
PLAYORDER=
